# xmcd
#
# Track frame offsets: 
#        150
#        18373
#        34439
#        58749
#        76159
#        98539
#        120186
#        143461
#        155888
#        176650
#        191015
#
# Disc length: 2906 seconds
#
# Revision: 0
# Processed by: cddbd v1.5.2PL0 Copyright (c) Steve Scherf et al.
# Submitted via: ExactAudioCopy v1.2
#
DISCID=860b580b
DTITLE=Rev. Sekou (feat. Luther and Cody Dickinson) - In Times Like Thes
DTITLE=e
DYEAR=2017
DGENRE=Blues
TTITLE0=Resist
TTITLE1=In Times Like These
TTITLE2=Burnin’ And Lootin’
TTITLE3=Lord, I Am Running (99 Won’t Do) (feat. featuring Raina Sokolo
TTITLE3=v-Gonzalez)
TTITLE4=Muddy And Rough (Woyaya)
TTITLE5=Old Time Religion
TTITLE6=The Devil Finds Work
TTITLE7=When The Spirit Says Move
TTITLE8=Loving You Is Killing Me
TTITLE9=Will To Win
TTITLE10=Problems
EXTD=
EXTT0=
EXTT1=
EXTT2=
EXTT3=
EXTT4=
EXTT5=
EXTT6=
EXTT7=
EXTT8=
EXTT9=
EXTT10=
PLAYORDER=
